<?xml version="1.0" standalone="no"?>
<svg xmlns:xlink="http://www.w3.org/1999/xlink" xmlns="http://www.w3.org/2000/svg" width="960" height="500" id="svgo"><g/><g/><g><path class="light_rail" d="M569.2454684445402,153.59171563040582L604.4892728889827,118.20824876771076" fill="none" stroke="purple"/><path class="light_rail" d="M610.9554915555054,111.79474932485027L569.2454684445402,153.59171563040582" fill="none" stroke="purple"/><path class="tram" d="M537.9046968889888,153.59171563040582L529.1083093334455,98.9675238673517L519.2633457777556,98.6726415687881L511.3990257778205,49.64623949030647L500.38897777791135,39.54551508446457L497.82579200004693,27.158969542157138" fill="none" stroke="purple"/><path class="subway" d="M658.2579200000037,82.96992855056305L613.7516942222137,108.77226938260719L569.0707057778491,153.59171563040582" fill="none" stroke="purple"/><path class="light_rail" d="M604.4892728889827,118.20824876771076L569.2454684445402,153.59171563040582" fill="none" stroke="purple"/><path class="light_rail" d="M657.3258524443954,153.59171563040582L653.7723448888864,142.38719980980386L643.1118222222431,131.1087373069313L637.111637333408,119.75632352544926L625.8685724444222,106.7081271003699L621.7325226666871,104.49653740230133L616.0236088889651,106.7818466022145L569.2454684445402,153.59171563040582" fill="none" stroke="purple"/><path class="light_rail" d="M569.2454684445402,153.59171563040582L616.0236088889651,106.7818466022145L621.7325226666871,104.49653740230133L625.8685724444222,106.7081271003699L637.7524337777868,120.64093569733086L642.7040426667081,131.40360204468016L654.1801244444214,143.8614913748752L656.9763271112461,153.59171563040582" fill="none" stroke="purple"/><path class="tram" d="M609.7321528889006,111.86846813838929L458.03815822221804,136.342562672653M458.0964124444872,136.48999364487827L459.31975111109205,136.26884717150824" fill="none" stroke="purple"/><path class="light_rail" d="M569.2454684445402,153.59171563040582L616.0236088889651,106.7818466022145L621.7325226666871,104.49653740230133L625.8685724444222,106.7081271003699L637.7524337777868,120.64093569733086L642.7040426667081,131.40360204468016L654.1801244444214,143.8614913748752L656.9763271112461,153.59171563040582" fill="none" stroke="purple"/><path class="light_rail" d="M610.9554915555054,111.79474932485027L569.2454684445402,153.59171563040582" fill="none" stroke="purple"/><path class="tram" d="M485.3011342221871,10.938067132781725L486.81574400002137,13.666161794390064L533.8269013334066,6.29290152748581L560.6238435555715,22.29274955848814L576.1194666668307,37.18619479963672L623.5384035556344,104.2753779386403L636.8203662221786,119.09286345369765L641.8884835555218,130.96130487814662L654.1801244444214,143.8614913748752L656.9763271112461,153.59171563040582" fill="none" stroke="purple"/><path class="subway" d="M569.9445191110717,153.59171563040582L615.266304000048,108.10879593071877L658.2579200000037,83.33854202667135" fill="none" stroke="purple"/><path class="subway" d="M569.9445191110717,153.59171563040582L615.266304000048,108.10879593071877L658.2579200000037,83.33854202667135" fill="none" stroke="purple"/><path class="subway" d="M569.9445191110717,153.59171563040582L615.266304000048,108.10879593071877L658.2579200000037,83.33854202667135" fill="none" stroke="purple"/><path class="light_rail" d="M569.2454684445402,153.59171563040582L610.9554915555054,111.79474932485027" fill="none" stroke="purple"/><path class="tram" d="M537.9046968889888,153.59171563040582L528.7587840000633,98.45147974023712L481.1068302222993,105.08629553334322L466.9510542221833,17.35275448547327L462.9315128889866,13.81362598130363" fill="none" stroke="purple"/><path class="light_rail" d="M657.3258524443954,153.59171563040582L653.7723448888864,142.38719980980386L643.1118222222431,131.1087373069313L637.111637333408,119.75632352544926L625.8685724444222,106.7081271003699L621.7325226666871,104.49653740230133L616.0236088889651,106.7818466022145L569.2454684445402,153.59171563040582" fill="none" stroke="purple"/><path class="tram" d="M462.9315128889866,13.81362598130363L466.8345457778778,17.57394925315748L481.86413511121646,111.42615510796895L529.516088888864,104.86513630888658L537.6716800000286,153.59171563040582" fill="none" stroke="purple"/><path class="light_rail" d="M610.9554915555054,111.79474932485027L569.2454684445402,153.59171563040582" fill="none" stroke="purple"/><path class="light_rail" d="M569.2454684445402,153.59171563040582L610.9554915555054,111.79474932485027" fill="none" stroke="purple"/><path class="subway" d="M569.9445191110717,153.59171563040582L615.266304000048,108.10879593071877L658.2579200000037,83.33854202667135" fill="none" stroke="purple"/><path class="light_rail" d="M569.2454684445402,153.59171563040582L610.9554915555054,111.79474932485027" fill="none" stroke="purple"/><path class="tram" d="M657.3258524443954,153.59171563040582L654.5879039999563,143.64034789451398L645.3837368889945,133.76251420000335L638.3932302221656,120.64093569733086L623.7714204444783,104.20165809738683L576.1194666668307,36.891279045288684L560.3908266667277,21.702901756681968L534.059918222134,5.40810358573799L514.4864995556418,2.1638321639038622L486.05843911110424,6.145435303711565L484.8351004444994,7.546362817229237L485.3011342221871,10.938067132781725" fill="none" stroke="purple"/><path class="subway" d="M658.2579200000037,82.96992855056305L613.7516942222137,108.77226938260719L569.0707057778491,153.59171563040582" fill="none" stroke="purple"/><path class="tram" d="M569.769756444497,153.59171563040582L616.140117333387,107.07672451020335L622.4898275556043,111.35243623473798L625.9268266666913,106.63440758833895L576.1194666668307,36.891279045288684L559.2257422222756,20.818128856102703L534.059918222134,5.40810358573799L514.4864995556418,2.1638321639038622L486.05843911110424,6.145435303711565L484.8351004444994,7.546362817229237L485.3011342221871,10.938067132781725" fill="none" stroke="purple"/><path class="tram" d="M458.03815822221804,136.342562672653L609.7321528889006,111.86846813838929M458.0964124444872,136.48999364487827L459.31975111109205,136.26884717150824" fill="none" stroke="purple"/><path class="tram" d="M485.3011342221871,10.938067132781725L486.81574400002137,13.666161794390064L533.8269013334066,6.29290152748581L558.4684373333585,20.523204236320453L576.1194666668307,37.18619479963672L625.5773013333092,106.7081271003699L622.2568106667604,110.98384171840735L616.0818631111179,106.63440758833895L569.3619768889621,153.59171563040582" fill="none" stroke="purple"/><path class="subway" d="M658.2579200000037,82.96992855056305L613.7516942222137,108.77226938260719L569.0707057778491,153.59171563040582" fill="none" stroke="purple"/><path class="tram" d="M497.82579200004693,27.158969542157138L499.9229439999908,39.61924367872416L511.3990257778205,51.12078212547931L520.1371591112111,105.38117435926688L529.9238684445154,105.38117435926688L537.6716800000286,153.59171563040582" fill="none" stroke="purple"/><path class="subway" d="M569.9445191110717,153.59171563040582L615.266304000048,108.10879593071877L658.2579200000037,83.33854202667135" fill="none" stroke="purple"/><path class="light_rail" d="M569.2454684445402,153.59171563040582L616.0236088889651,106.7818466022145L621.7325226666871,104.49653740230133L625.8685724444222,106.7081271003699L637.7524337777868,120.64093569733086L642.7040426667081,131.40360204468016L654.1801244444214,143.8614913748752L656.9763271112461,153.59171563040582" fill="none" stroke="purple"/><path class="light_rail" d="M657.3258524443954,153.59171563040582L653.7723448888864,142.38719980980386L643.1118222222431,131.1087373069313L637.111637333408,119.75632352544926L625.8685724444222,106.7081271003699L621.7325226666871,104.49653740230133L616.0236088889651,106.7818466022145L569.2454684445402,153.59171563040582" fill="none" stroke="purple"/><path class="subway" d="M658.2579200000037,82.96992855056305L613.7516942222137,108.77226938260719L569.0707057778491,153.59171563040582" fill="none" stroke="purple"/><path class="subway" d="M569.9445191110717,153.59171563040582L615.266304000048,108.10879593071877L658.2579200000037,83.33854202667135" fill="none" stroke="purple"/><path class="subway" d="M658.2579200000037,82.96992855056305L613.7516942222137,108.77226938260719L569.0707057778491,153.59171563040582" fill="none" stroke="purple"/></g><g><path class="subway" d="M914.2852266667178,2.827434709208319L753.8530986666447,37.62856813179678L733.7553919999627,43.158204459847184L715.4053120000754,51.047055088652996L658.2579200000037,82.96992855056305" fill="none" stroke="purple"/><path class="subway" d="M914.2852266667178,2.827434709208319L753.8530986666447,37.62856813179678L733.7553919999627,43.158204459847184L715.4053120000754,51.047055088652996L658.2579200000037,82.96992855056305" fill="none" stroke="purple"/><path class="subway" d="M658.2579200000037,83.33854202667135L715.5218204444973,51.34196317655733L733.8719004443847,43.45311682016472L753.9696071110666,37.92348348686937L914.2852266667178,3.1961024403572083" fill="none" stroke="purple"/><path class="subway" d="M658.2579200000037,83.33854202667135L715.5218204444973,51.34196317655733L733.8719004443847,43.45311682016472L753.9696071110666,37.92348348686937L914.2852266667178,3.1961024403572083" fill="none" stroke="purple"/><path class="subway" d="M914.2852266667178,2.827434709208319L753.8530986666447,37.62856813179678L733.7553919999627,43.158204459847184L715.4053120000754,51.047055088652996L658.2579200000037,82.96992855056305" fill="none" stroke="purple"/><path class="subway" d="M658.2579200000037,83.33854202667135L715.5218204444973,51.34196317655733L733.8719004443847,43.45311682016472L753.9696071110666,37.92348348686937L914.2852266667178,3.1961024403572083" fill="none" stroke="purple"/><path class="subway" d="M914.2852266667178,2.827434709208319L753.8530986666447,37.62856813179678L733.7553919999627,43.158204459847184L715.4053120000754,51.047055088652996L658.2579200000037,82.96992855056305" fill="none" stroke="purple"/><path class="subway" d="M914.2852266667178,2.827434709208319L753.8530986666447,37.62856813179678L733.7553919999627,43.158204459847184L715.4053120000754,51.047055088652996L658.2579200000037,82.96992855056305" fill="none" stroke="purple"/><path class="subway" d="M658.2579200000037,83.33854202667135L715.5218204444973,51.34196317655733L733.8719004443847,43.45311682016472L753.9696071110666,37.92348348686937L914.2852266667178,3.1961024403572083" fill="none" stroke="purple"/><path class="subway" d="M658.2579200000037,83.33854202667135L715.5218204444973,51.34196317655733L733.8719004443847,43.45311682016472L753.9696071110666,37.92348348686937L914.2852266667178,3.1961024403572083" fill="none" stroke="purple"/><path class="subway" d="M658.2579200000037,83.33854202667135L715.5218204444973,51.34196317655733L733.8719004443847,43.45311682016472L753.9696071110666,37.92348348686937L914.2852266667178,3.1961024403572083" fill="none" stroke="purple"/></g><g><path class="subway" d="M1170.3125333333155,18.532458874891745L1124.8742400000338,7.030232047254685L1003.9384746666765,-7.05295348240179L960.9468586667208,-5.3570532102603465L914.2852266667178,2.827434709208319" fill="none" stroke="purple"/><path class="subway" d="M1170.3125333333155,18.532458874891745L1124.8742400000338,7.030232047254685L1003.9384746666765,-7.05295348240179L960.9468586667208,-5.3570532102603465L914.2852266667178,2.827434709208319" fill="none" stroke="purple"/><path class="subway" d="M914.2852266667178,3.1961024403572083L961.0051128888736,-5.062114571919665L1003.8802204444073,-6.684279060864355L1124.815985777881,7.251431008684449L1170.3125333333155,18.753653163468698" fill="none" stroke="purple"/><path class="subway" d="M914.2852266667178,3.1961024403572083L961.0051128888736,-5.062114571919665L1003.8802204444073,-6.684279060864355L1124.815985777881,7.251431008684449L1170.3125333333155,18.753653163468698" fill="none" stroke="purple"/><path class="subway" d="M914.2852266667178,3.1961024403572083L961.0051128888736,-5.062114571919665L1003.8802204444073,-6.684279060864355L1124.815985777881,7.251431008684449L1170.3125333333155,18.753653163468698" fill="none" stroke="purple"/><path class="subway" d="M1170.3125333333155,18.532458874891745L1124.8742400000338,7.030232047254685L1003.9384746666765,-7.05295348240179L960.9468586667208,-5.3570532102603465L914.2852266667178,2.827434709208319" fill="none" stroke="purple"/><path class="train" d="M1170.3125333333155,-50.926992305758176L1145.204963555676,-24.159721185686067L1138.622236444382,-10.59224063163856L1136.6998471110128,1.6476962917367928L1138.7387448889203,16.910364680399653L1145.2632177778287,29.81325302136247L1153.768334222259,39.54551508446457L1170.3125333333155,50.45723843379528" fill="none" stroke="purple"/><path class="train" d="M1170.3125333333155,-50.926992305758176L1145.204963555676,-24.159721185686067L1138.622236444382,-10.59224063163856L1136.6998471110128,1.6476962917367928L1138.7387448889203,16.910364680399653L1145.2632177778287,29.81325302136247L1153.768334222259,39.54551508446457L1170.3125333333155,50.45723843379528" fill="none" stroke="purple"/><path class="subway" d="M914.2852266667178,3.1961024403572083L961.0051128888736,-5.062114571919665L1003.8802204444073,-6.684279060864355L1124.815985777881,7.251431008684449L1170.3125333333155,18.753653163468698" fill="none" stroke="purple"/><path class="subway" d="M1170.3125333333155,18.532458874891745L1124.8742400000338,7.030232047254685L1003.9384746666765,-7.05295348240179L960.9468586667208,-5.3570532102603465L914.2852266667178,2.827434709208319" fill="none" stroke="purple"/><path class="subway" d="M1170.3125333333155,18.532458874891745L1124.8742400000338,7.030232047254685L1003.9384746666765,-7.05295348240179L960.9468586667208,-5.3570532102603465L914.2852266667178,2.827434709208319" fill="none" stroke="purple"/><path class="train" d="M1170.3125333333155,-50.926992305758176L1145.204963555676,-24.159721185686067L1138.622236444382,-10.59224063163856L1136.6998471110128,1.6476962917367928L1138.7387448889203,16.910364680399653L1145.2632177778287,29.81325302136247L1153.768334222259,39.54551508446457L1170.3125333333155,50.45723843379528" fill="none" stroke="purple"/><path class="subway" d="M914.2852266667178,3.1961024403572083L961.0051128888736,-5.062114571919665L1003.8802204444073,-6.684279060864355L1124.815985777881,7.251431008684449L1170.3125333333155,18.753653163468698" fill="none" stroke="purple"/><path class="train" d="M1170.3125333333155,50.45723843379528L1156.215011555585,41.53618362345151L1146.8943359999685,32.09887564973906L1138.7387448889203,16.910364680399653L1136.6998471110128,5.113170618889853L1137.9814400000032,-8.158978245221078L1142.8165404443862,-20.251662227063207L1147.5933866667328,-27.25669349229429L1170.3125333333155,-50.926992305758176" fill="none" stroke="purple"/><path class="subway" d="M914.2852266667178,3.1961024403572083L961.0051128888736,-5.062114571919665L1003.8802204444073,-6.684279060864355L1124.815985777881,7.251431008684449L1170.3125333333155,18.753653163468698" fill="none" stroke="purple"/></g><g><path class="light_rail" d="M-50.22993066662457,359.21263112468296L-49.12310044444166,360.1705398381164L-45.569592888932675,358.32840620254865L146.26156088884454,347.5702214213379" fill="none" stroke="purple"/><path class="light_rail" d="M146.26156088884454,347.42284755271976L-49.181354666594416,358.03366424309206L-50.22993066662457,359.21263112468296" fill="none" stroke="purple"/></g><g><path class="light_rail" d="M287.58630399999674,409.6110808241938L352.24849066662136,353.31777121618506L358.36518399999477,349.48607808732777L373.1617564444896,345.72804519947385L379.860992000089,342.1173617429449L402.2888675555587,320.82121149468" fill="none" stroke="purple"/><path class="tram" d="M402.2888675555587,320.5264492512215L393.84200533339754,329.44293658580864L394.0750222223578,340.8646700567915L382.831957333372,341.82261101694894" fill="none" stroke="purple"/><path class="light_rail" d="M287.58630399999674,409.6110808241938L352.24849066662136,353.31777121618506L358.36518399999477,349.48607808732777L373.1617564444896,345.72804519947385L379.860992000089,342.1173617429449L402.2888675555587,320.82121149468" fill="none" stroke="purple"/><path class="light_rail" d="M402.2888675555587,320.82121149468L379.860992000089,342.1173617429449L374.21033244451974,345.28592197969556L358.24867555557285,349.26501804648433L352.13198222219944,353.0967127295153L287.2950328888837,409.6110808241938" fill="none" stroke="purple"/><path class="tram" d="M382.831957333372,341.82261101694894L402.2888675555587,321.1896640746854" fill="none" stroke="purple"/><path class="light_rail" d="M402.2888675555587,320.82121149468L379.860992000089,342.1173617429449L374.21033244451974,345.28592197969556L358.24867555557285,349.26501804648433L352.13198222219944,353.0967127295153L287.2950328888837,409.6110808241938" fill="none" stroke="purple"/><path class="light_rail" d="M402.2888675555587,320.82121149468L379.860992000089,342.1173617429449L374.21033244451974,345.28592197969556L358.24867555557285,349.26501804648433L352.13198222219944,353.0967127295153L287.2950328888837,409.6110808241938" fill="none" stroke="purple"/><path class="light_rail" d="M146.26156088884454,347.5702214213379L200.14671644452028,344.54904914984945L201.31180088897236,330.7693437249982L249.37153422215488,328.1165262183349L251.70170311105903,324.9478661628091L297.43126755568665,317.5788180489617L302.907164444332,313.30472448750515L383.53100800001994,292.7443921727827L402.2888675555587,292.15483715359005" fill="none" stroke="purple"/><path class="light_rail" d="M402.2888675555587,320.82121149468L379.860992000089,342.1173617429449L374.21033244451974,345.28592197969556L358.24867555557285,349.26501804648433L352.13198222219944,353.0967127295153L287.2950328888837,409.6110808241938" fill="none" stroke="purple"/><path class="light_rail" d="M287.58630399999674,409.6110808241938L352.24849066662136,353.31777121618506L358.36518399999477,349.48607808732777L373.1617564444896,345.72804519947385L379.860992000089,342.1173617429449L402.2888675555587,320.82121149468" fill="none" stroke="purple"/><path class="light_rail" d="M287.58630399999674,409.6110808241938L352.24849066662136,353.31777121618506L358.36518399999477,349.48607808732777L373.1617564444896,345.72804519947385L379.860992000089,342.1173617429449L402.2888675555587,320.82121149468" fill="none" stroke="purple"/><path class="light_rail" d="M402.2888675555587,291.7863649427891L383.47275377775077,292.52330911523313L302.84891022217926,313.08364977076417L297.43126755568665,317.3577450659359L251.1191608889494,324.8004861770023L249.0220088888891,327.8217679207155L201.02052977785934,330.5482760925079L199.91369955556002,344.3279871066916L146.26156088884454,347.42284755271976" fill="none" stroke="purple"/><path class="light_rail" d="M287.2950328888837,409.6110808241938L352.13198222219944,353.0967127295153L358.24867555557285,349.26501804648433L374.21033244451974,345.28592197969556L379.860992000089,342.1173617429449L402.2888675555587,320.82121149468" fill="none" stroke="purple"/><path class="light_rail" d="M402.2888675555587,320.82121149468L379.860992000089,342.1173617429449L373.1617564444896,345.72804519947385L358.36518399999477,349.48607808732777L352.24849066662136,353.31777121618506L287.58630399999674,409.6110808241938" fill="none" stroke="purple"/></g><g><path class="light_rail" d="M402.2888675555587,320.82121149468L569.2454684445402,153.59171563040582" fill="none" stroke="purple"/><path class="light_rail" d="M569.2454684445402,153.59171563040582L435.31901155551895,287.8805441900622L431.94026666658465,289.57552644549287L416.85242311109323,291.27050342882285L424.19245511107147,375.27580081828637L429.1440639999928,378.66521651193034L429.84311466664076,385.1492573755095L424.9497599999886,398.6328681212035L425.70706488890573,409.6110808241938" fill="none" stroke="purple"/><path class="tram" d="M537.6716800000286,153.59171563040582L541.80772977788,178.43248473791755" fill="none" stroke="purple"/><path class="tram" d="M541.80772977788,178.43248473791755L537.9046968889888,153.59171563040582" fill="none" stroke="purple"/><path class="subway" d="M569.0707057778491,153.59171563040582L476.03871288883965,246.75718513544416L470.8540871110745,255.1589838731743L468.4074097778648,265.6242011176364L468.2326471110573,276.9735757368908L478.13586488889996,409.6110808241938" fill="none" stroke="purple"/><path class="light_rail" d="M569.2454684445402,153.59171563040582L402.2888675555587,320.82121149468" fill="none" stroke="purple"/><path class="light_rail" d="M657.6171235555084,409.6110808241938L646.0245333333733,254.86418611052795L644.2186524445424,253.24279556502006L635.0144853333477,253.53759420488495L622.1403022222221,240.19779606742668L653.7723448888864,206.66260684325243L657.3258524443954,153.59171563040582M569.2454684445402,153.59171563040582L402.2888675555587,320.82121149468" fill="none" stroke="purple"/><path class="light_rail" d="M402.2888675555587,320.82121149468L569.2454684445402,153.59171563040582M656.9763271112461,153.59171563040582L653.9471075555775,205.041072849388L650.4518542223377,210.79012614066596L621.674268444418,239.5344826641376L629.6550968888914,248.5259956358932" fill="none" stroke="purple"/><path class="light_rail" d="M402.2888675555587,320.82121149468L569.2454684445402,153.59171563040582M656.9763271112461,153.59171563040582L653.4228195555042,206.51519486145116L621.4995057778433,240.19779606742668L634.8979768888094,253.75869308007532L643.9856355555821,253.53759420488495L645.7332622223767,255.2326832888648L657.384106666781,409.6110808241938" fill="none" stroke="purple"/><path class="light_rail" d="M569.2454684445402,153.59171563040582L402.2888675555587,320.82121149468" fill="none" stroke="purple"/><path class="tram" d="M656.9763271112461,153.59171563040582L653.1315484445076,207.17854846574483L601.0522737777792,260.0968226879777L598.139562666649,266.434878572647" fill="none" stroke="purple"/><path class="subway" d="M478.718407111126,409.6110808241938L468.8734435555525,276.9735757368908L468.9316977778217,265.69789911809494L471.43662933341693,255.3063826947182L476.38823822222184,247.1256877965061L569.9445191110717,153.59171563040582" fill="none" stroke="purple"/><path class="subway" d="M478.718407111126,409.6110808241938L468.8734435555525,276.9735757368908L468.9316977778217,265.69789911809494L471.43662933341693,255.3063826947182L476.38823822222184,247.1256877965061L569.9445191110717,153.59171563040582" fill="none" stroke="purple"/><path class="subway" d="M478.718407111126,409.6110808241938L468.8734435555525,276.9735757368908L468.9316977778217,265.69789911809494L471.43662933341693,255.3063826947182L476.38823822222184,247.1256877965061L569.9445191110717,153.59171563040582" fill="none" stroke="purple"/><path class="light_rail" d="M402.2888675555587,320.82121149468L569.2454684445402,153.59171563040582" fill="none" stroke="purple"/><path class="tram" d="M541.80772977788,178.43248473791755L537.9046968889888,153.59171563040582" fill="none" stroke="purple"/><path class="light_rail" d="M618.8780657778261,242.92474268606748L650.1023288889555,211.89570635702694L653.7723448888864,206.66260684325243L657.3258524443954,153.59171563040582M569.2454684445402,153.59171563040582L435.31901155551895,287.8805441900622L431.1247075556312,289.64922120646224L402.2888675555587,291.7863649427891" fill="none" stroke="purple"/><path class="subway" d="M569.0707057778491,153.59171563040582L476.03871288883965,246.75718513544416L470.8540871110745,255.1589838731743L468.4074097778648,265.6242011176364L468.2326471110573,276.9735757368908L478.13586488889996,409.6110808241938" fill="none" stroke="purple"/><path class="tram" d="M402.2888675555587,321.1896640746854L569.769756444497,153.59171563040582" fill="none" stroke="purple"/><path class="light_rail" d="M569.2454684445402,153.59171563040582L402.2888675555587,320.82121149468" fill="none" stroke="purple"/><path class="light_rail" d="M425.88182755559683,409.6110808241938L425.18277688894887,398.9275881286885L430.1343857777538,385.1492573755095L429.37708088895306,378.51785105027375L424.4837262221845,375.5705334544473L417.2019484444754,291.4178924826265L434.3286897778744,288.83857828663895L569.2454684445402,153.59171563040582" fill="none" stroke="purple"/><path class="subway" d="M478.718407111126,409.6110808241938L468.8734435555525,276.9735757368908L468.9316977778217,265.69789911809494L471.43662933341693,255.3063826947182L476.38823822222184,247.1256877965061L569.9445191110717,153.59171563040582" fill="none" stroke="purple"/><path class="light_rail" d="M402.2888675555587,320.82121149468L569.2454684445402,153.59171563040582" fill="none" stroke="purple"/><path class="tram" d="M598.722104888875,266.58227434402215L601.285290666623,260.2442201738595L653.4228195555042,207.32596026785905L655.0539377778769,201.06092349352548L657.3258524443954,153.59171563040582" fill="none" stroke="purple"/><path class="subway" d="M569.0707057778491,153.59171563040582L476.03871288883965,246.75718513544416L470.8540871110745,255.1589838731743L468.4074097778648,265.6242011176364L468.2326471110573,276.9735757368908L478.13586488889996,409.6110808241938" fill="none" stroke="purple"/><path class="train" d="M616.1983715555398,239.6818857124308L587.5955484444275,268.2036251972022L585.6149048889056,271.5937068464991L584.9158542222576,276.0155207804928L586.1391928888625,280.3636028266628L588.17809066677,283.16404408140806L620.2761671110056,315.1470103052561L627.1501653332962,327.9691470894031L631.0531982221873,363.04425587761216L631.1697066667257,387.65443432552274L629.1890631112037,409.6110808241938M629.4220799999312,409.6110808241938L630.5289102222305,399.295987913938L631.6939946666826,380.65464634247473L631.2862151111476,362.89688619281515L627.3831822222564,327.8217679207155L620.5091839999659,314.9996276689344L588.4693617777666,283.0166527949332L585.4401422223309,275.8681275607669L588.4693617777666,267.6877413581533L616.3731342221145,239.82928872085176M616.140117333387,236.14420154725667L614.6837617778219,237.6919411958661L618.0042524444871,241.00851135258563L617.0721848888788,239.2396764481091L618.1790151110617,238.13415171651286L616.140117333387,236.14420154725667" fill="none" stroke="purple"/><path class="tram" d="M569.3619768889621,153.59171563040582L402.2888675555587,320.5264492512215" fill="none" stroke="purple"/><path class="subway" d="M569.0707057778491,153.59171563040582L476.03871288883965,246.75718513544416L470.8540871110745,255.1589838731743L468.4074097778648,265.6242011176364L468.2326471110573,276.9735757368908L478.13586488889996,409.6110808241938" fill="none" stroke="purple"/><path class="tram" d="M537.6716800000286,153.59171563040582L541.80772977788,178.43248473791755" fill="none" stroke="purple"/><path class="subway" d="M478.718407111126,409.6110808241938L468.8734435555525,276.9735757368908L468.9316977778217,265.69789911809494L471.43662933341693,255.3063826947182L476.38823822222184,247.1256877965061L569.9445191110717,153.59171563040582" fill="none" stroke="purple"/><path class="light_rail" d="M402.2888675555587,292.15483715359005L434.3286897778744,288.83857828663895L569.2454684445402,153.59171563040582M656.9763271112461,153.59171563040582L653.4228195555042,206.51519486145116L618.4702862222912,242.62993830410414" fill="none" stroke="purple"/><path class="train" d="M616.1983715555398,239.6818857124308L587.5955484444275,268.2036251972022L585.6149048889056,271.5937068464991L584.9158542222576,276.0155207804928L586.1391928888625,280.3636028266628L588.17809066677,283.16404408140806L620.2761671110056,315.1470103052561L627.1501653332962,327.9691470894031L631.0531982221873,363.04425587761216L631.1697066667257,387.65443432552274L629.1890631112037,409.6110808241938M629.4220799999312,409.6110808241938L630.5289102222305,399.295987913938L631.6939946666826,380.65464634247473L631.2862151111476,362.89688619281515L627.3831822222564,327.8217679207155L620.5091839999659,314.9996276689344L588.4693617777666,283.0166527949332L585.4401422223309,275.8681275607669L588.4693617777666,267.6877413581533L616.3731342221145,239.82928872085176M616.140117333387,236.14420154725667L614.6837617778219,237.6919411958661L618.0042524444871,241.00851135258563L617.0721848888788,239.2396764481091L618.1790151110617,238.13415171651286L616.140117333387,236.14420154725667" fill="none" stroke="purple"/><path class="light_rail" d="M629.8298595555825,248.37859498010948L622.3150648889132,239.46078112508985L650.1023288889555,211.89570635702694L654.2966328889597,205.18848523011548L657.3258524443954,153.59171563040582M569.2454684445402,153.59171563040582L402.2888675555587,320.82121149468" fill="none" stroke="purple"/><path class="subway" d="M569.0707057778491,153.59171563040582L476.03871288883965,246.75718513544416L470.8540871110745,255.1589838731743L468.4074097778648,265.6242011176364L468.2326471110573,276.9735757368908L478.13586488889996,409.6110808241938" fill="none" stroke="purple"/><path class="subway" d="M478.718407111126,409.6110808241938L468.8734435555525,276.9735757368908L468.9316977778217,265.69789911809494L471.43662933341693,255.3063826947182L476.38823822222184,247.1256877965061L569.9445191110717,153.59171563040582" fill="none" stroke="purple"/><path class="train" d="M616.1983715555398,239.6818857124308L587.5955484444275,268.2036251972022L584.9158542222576,276.0155207804928L588.17809066677,283.16404408140806L620.2761671110056,315.1470103052561L627.1501653332962,327.9691470894031L631.0531982221873,363.04425587761216L631.1697066667257,387.65443432552274L629.1890631112037,409.6110808241938M629.4220799999312,409.6110808241938L630.5289102222305,399.295987913938L631.6939946666826,380.65464634247473L631.2862151111476,362.89688619281515L629.1308088888181,336.885512661509L627.3831822222564,327.8217679207155L624.5287253333954,320.9685925564263L620.5091839999659,314.9996276689344L588.4693617777666,283.0166527949332L585.4401422223309,275.8681275607669L588.4693617777666,267.6877413581533L616.3731342221145,239.82928872085176M616.140117333387,236.14420154725667L614.6837617778219,237.6919411958661L618.0042524444871,241.00851135258563L617.0721848888788,239.2396764481091L618.1790151110617,238.13415171651286L616.140117333387,236.14420154725667" fill="none" stroke="purple"/></g><g/><g/><g><path class="light_rail" d="M146.26156088884454,485.2000204484211L-22.209649777854793,494.6294843540236L-21.68536177778151,521.5909580393345L-27.627292444347404,523.5798664179456L-26.86998755543027,535.8078103909793L-23.02520888892468,536.3971019705641" fill="none" stroke="purple"/><path class="light_rail" d="M-23.02520888892468,536.3971019705641L-20.695040000020526,535.2921797364252L-21.918378666625358,494.8504854585626L146.26156088884454,485.4210253749916" fill="none" stroke="purple"/></g><g><path class="light_rail" d="M313.80070400005206,648.1300119665102L322.48058311105706,636.788360791892L322.4223288889043,634.7262170629692L311.1792640000349,633.1059558073466L283.974542222335,632.8850107176695L228.1087431111373,618.0078354787838L202.41863111115526,605.7080822350108L194.20478577772155,597.3853373850288L187.3890417778166,584.7904997000587L168.63118222216144,572.8582799296128L169.91277511103544,545.3100594641874L176.78677333332598,531.0934548295336L199.85544533329085,505.9740920125914L231.4874880000716,460.22588677267777L243.02182400005404,448.43828766338993L287.58630399999674,409.6110808241938" fill="none" stroke="purple"/><path class="light_rail" d="M402.2888675555587,555.9170256658981L383.53100800001994,567.5549873503624L377.5890773333376,576.614747641026L364.2488604444079,580.8867775182007L352.6562702221563,589.7990079956653L344.44242488895543,605.0452134056832L325.9758364444133,633.0323074541811L312.51911111106165,634.1370317086112L310.8297386666527,643.8585086840903L313.80070400005206,648.1300119665102" fill="none" stroke="purple"/><path class="light_rail" d="M287.2950328888837,409.6110808241938L242.84706133324653,448.29094106171397L231.31272533349693,460.0785433566489L199.68068266659975,505.8267609582399L176.6120106666349,531.0197927005647L169.44674133334775,545.8993407763774L168.33991111104842,572.9319364080729L187.2142791111255,584.9378094238637L194.43780266668182,598.121868599701L204.4575288889464,607.2547730376245L228.9243022222072,618.5233879420557L283.21723733341787,633.0323074541811L311.5287893334171,633.4741974243079L310.8879928889219,644.3003898850584L313.80070400005206,648.1300119665102" fill="none" stroke="purple"/><path class="light_rail" d="M287.58630399999674,409.6110808241938L234.74972444435116,456.6896337986982L225.07952355558518,468.25604272587225L203.8167324444512,500.2281513972848" fill="none" stroke="purple"/><path class="light_rail" d="M170.08753777772654,544.794437793782L176.78677333332598,531.0934548295336L199.85544533329085,505.9740920125914L231.4874880000716,460.22588677267777L243.02182400005404,448.43828766338993L287.58630399999674,409.6110808241938" fill="none" stroke="purple"/><path class="light_rail" d="M203.58371555560734,500.1544850987557L224.9047608888941,468.10870147991227L234.57496177777648,456.54228942710324L287.2950328888837,409.6110808241938" fill="none" stroke="purple"/><path class="light_rail" d="M287.2950328888837,409.6110808241938L234.57496177777648,456.54228942710324L224.9047608888941,468.10870147991227L203.23419022222515,500.4491502325982L192.57366755558178,496.54482428493793L172.18468977767043,497.4288250608661L170.26230044441763,483.94765750688384L146.26156088884454,485.2000204484211" fill="none" stroke="purple"/><path class="subway" d="M306.9267057777615,665.5839106009807L313.7424497778993,625.4464738152747L317.99500800005626,615.282764364907L323.7039217777783,606.5919060879387L338.0927146667382,593.8499737103994L366.75379200000316,577.7932419836579L402.2888675555587,548.6247585626261" fill="none" stroke="purple"/><path class="subway" d="M306.9267057777615,665.5839106009807L313.7424497778993,625.4464738152747L317.99500800005626,615.282764364907L323.7039217777783,606.5919060879387L338.0927146667382,593.8499737103994L366.75379200000316,577.7932419836579L402.2888675555587,548.6247585626261" fill="none" stroke="purple"/><path class="subway" d="M306.9267057777615,665.5839106009807L313.7424497778993,625.4464738152747L317.99500800005626,615.282764364907L323.7039217777783,606.5919060879387L338.0927146667382,593.8499737103994L366.75379200000316,577.7932419836579L402.2888675555587,548.6247585626261" fill="none" stroke="purple"/><path class="light_rail" d="M146.26156088884454,485.4210253749916L170.08753777772654,484.24233139902935L172.00992711109575,497.6498250310542L193.38922666665167,496.91315811575623L203.1759360000724,500.8174814262893L225.07952355558518,468.25604272587225L234.74972444435116,456.6896337986982L287.58630399999674,409.6110808241938" fill="none" stroke="purple"/><path class="subway" d="M402.2888675555587,548.0354801954818L366.46252088889014,577.4249627751997L337.9179520000471,593.6290127199318L323.4126506667817,606.4446022116754L313.33467022213154,625.3728244278172L306.5189262222266,665.5839106009807" fill="none" stroke="purple"/><path class="light_rail" d="M287.2950328888837,409.6110808241938L242.84706133324653,448.29094106171397L228.05048888886813,463.90945923211984L199.68068266659975,505.8267609582399L176.0877226665616,531.7564135428984L166.825301333447,550.8345467694744L153.6015928890556,572.710966943152L151.0384071111912,581.8442968658637L148.06744177779183,652.3278360556869L149.52379733335692,657.3357242960192L155.64049066673033,665.5839106009807M305.29558755562175,665.5839106009807L315.1405511110788,650.1921050290985" fill="none" stroke="purple"/><path class="light_rail" d="M313.80070400005206,648.1300119665102L321.8397866667947,639.7342668826168L353.23881244449876,589.5780453640618L364.36536888894625,581.0340882964665L377.7638400000287,576.8357155241829L383.70577066671103,567.7759589039488L402.2888675555587,556.2853193978954" fill="none" stroke="purple"/><path class="subway" d="M306.9267057777615,665.5839106009807L313.7424497778993,625.4464738152747L317.99500800005626,615.282764364907L323.7039217777783,606.5919060879387L338.0927146667382,593.8499737103994L366.75379200000316,577.7932419836579L402.2888675555587,548.6247585626261" fill="none" stroke="purple"/><path class="light_rail" d="M314.79102577781305,650.2657510659192L304.94606222223956,665.5839106009807M156.04827022226527,665.5839106009807L149.75681422220077,657.1884341215191L148.35871288890485,652.2541902975063L151.3296782221878,581.9179521305778L153.83460977778304,572.8582799296128L167.1165724444436,550.9818656649732L176.2624853333691,531.8300755724777L199.85544533329085,505.9740920125914L228.16699733329006,464.05680161263444L243.02182400005404,448.43828766338993L287.58630399999674,409.6110808241938" fill="none" stroke="purple"/><path class="subway" d="M402.2888675555587,548.0354801954818L366.46252088889014,577.4249627751997L337.9179520000471,593.6290127199318L323.4126506667817,606.4446022116754L313.33467022213154,625.3728244278172L306.5189262222266,665.5839106009807" fill="none" stroke="purple"/><path class="subway" d="M402.2888675555587,548.0354801954818L366.46252088889014,577.4249627751997L337.9179520000471,593.6290127199318L323.4126506667817,606.4446022116754L313.33467022213154,625.3728244278172L306.5189262222266,665.5839106009807" fill="none" stroke="purple"/><path class="subway" d="M306.9267057777615,665.5839106009807L313.7424497778993,625.4464738152747L317.99500800005626,615.282764364907L323.7039217777783,606.5919060879387L338.0927146667382,593.8499737103994L366.75379200000316,577.7932419836579L402.2888675555587,548.6247585626261" fill="none" stroke="purple"/><path class="light_rail" d="M287.2950328888837,409.6110808241938L242.84706133324653,448.29094106171397L231.31272533349693,460.0785433566489L199.68068266659975,505.8267609582399L176.6120106666349,531.0197927005647L169.73801244446076,544.794437793782" fill="none" stroke="purple"/><path class="subway" d="M402.2888675555587,548.0354801954818L366.46252088889014,577.4249627751997L337.9179520000471,593.6290127199318L323.4126506667817,606.4446022116754L313.33467022213154,625.3728244278172L306.5189262222266,665.5839106009807" fill="none" stroke="purple"/><path class="subway" d="M306.9267057777615,665.5839106009807L313.7424497778993,625.4464738152747L317.99500800005626,615.282764364907L323.7039217777783,606.5919060879387L338.0927146667382,593.8499737103994L366.75379200000316,577.7932419836579L402.2888675555587,548.6247585626261" fill="none" stroke="purple"/><path class="subway" d="M402.2888675555587,548.0354801954818L366.46252088889014,577.4249627751997L337.9179520000471,593.6290127199318L323.4126506667817,606.4446022116754L313.33467022213154,625.3728244278172L306.5189262222266,665.5839106009807" fill="none" stroke="purple"/></g><g><path class="light_rail" d="M657.384106666781,409.6110808241938L658.2579200000037,420.8101035684522M658.2579200000037,482.5479543445399L627.4996906666784,593.2607442035514L604.3727644445607,658.4403993368323L599.4794097777922,665.5839106009807" fill="none" stroke="purple"/><path class="subway" d="M478.13586488889996,409.6110808241938L480.58254222222604,446.3017580426822L455.47497244447004,495.9554896382324L448.4262115556048,507.81572683309787L439.22204444452655,517.5394555709499L402.2888675555587,548.0354801954818" fill="none" stroke="purple"/><path class="train" d="M629.1890631112037,409.6110808241938L606.1203911111224,618.3024369459599L593.5374791111099,665.5839106009807M593.7704960000701,665.5839106009807L603.9067306666402,630.1600139222573L606.7611875556177,615.7246687134902L629.4220799999312,409.6110808241938" fill="none" stroke="purple"/><path class="subway" d="M478.13586488889996,409.6110808241938L480.58254222222604,446.3017580426822L455.47497244447004,495.9554896382324L448.4262115556048,507.81572683309787L439.22204444452655,517.5394555709499L402.2888675555587,548.0354801954818" fill="none" stroke="purple"/><path class="light_rail" d="M425.70706488890573,409.6110808241938L431.94026666658465,491.7564618428878L449.30002488882747,491.1671220207063L450.2320924444357,492.34580102798645L443.59111111122184,517.7604473907559L439.2802986666793,526.0107445850444L423.3768960000016,541.9953402192332L402.2888675555587,555.9170256658981" fill="none" stroke="purple"/><path class="subway" d="M402.2888675555587,548.6247585626261L439.33855288883206,517.9814391212713L448.71748266671784,508.1103878271824L456.40704000007827,495.29248739915784L481.281592888874,446.3017580426822L478.718407111126,409.6110808241938" fill="none" stroke="purple"/><path class="subway" d="M478.13586488889996,409.6110808241938L480.58254222222604,446.3017580426822L455.47497244447004,495.9554896382324L448.4262115556048,507.81572683309787L439.22204444452655,517.5394555709499L402.2888675555587,548.0354801954818" fill="none" stroke="purple"/><path class="light_rail" d="M402.2888675555587,556.2853193978954L423.5516586668091,542.216322129214L439.4550613333704,526.2317329721991L443.8241280000657,517.83411131092L450.63987200008705,491.9774641120457L449.5912960000569,490.8724518708186L432.1732835556613,491.38812452877755L425.88182755559683,409.6110808241938" fill="none" stroke="purple"/><path class="subway" d="M402.2888675555587,548.6247585626261L439.33855288883206,517.9814391212713L448.71748266671784,508.1103878271824L456.40704000007827,495.29248739915784L481.281592888874,446.3017580426822L478.718407111126,409.6110808241938" fill="none" stroke="purple"/><path class="subway" d="M478.13586488889996,409.6110808241938L480.58254222222604,446.3017580426822L455.47497244447004,495.9554896382324L448.4262115556048,507.81572683309787L439.22204444452655,517.5394555709499L402.2888675555587,548.0354801954818" fill="none" stroke="purple"/><path class="train" d="M629.1890631112037,409.6110808241938L606.1203911111224,618.3024369459599L593.5374791111099,665.5839106009807M593.7704960000701,665.5839106009807L603.9067306666402,630.1600139222573L606.7611875556177,615.7246687134902L629.4220799999312,409.6110808241938" fill="none" stroke="purple"/><path class="subway" d="M402.2888675555587,548.6247585626261L439.33855288883206,517.9814391212713L448.71748266671784,508.1103878271824L456.40704000007827,495.29248739915784L481.281592888874,446.3017580426822L478.718407111126,409.6110808241938" fill="none" stroke="purple"/><path class="train" d="M629.1890631112037,409.6110808241938L606.1203911111224,618.3024369459599L593.5374791111099,665.5839106009807M593.7704960000701,665.5839106009807L603.9067306666402,630.1600139222573L606.7611875556177,615.7246687134902L629.4220799999312,409.6110808241938" fill="none" stroke="purple"/><path class="subway" d="M402.2888675555587,548.6247585626261L439.33855288883206,517.9814391212713L448.71748266671784,508.1103878271824L456.40704000007827,495.29248739915784L481.281592888874,446.3017580426822L478.718407111126,409.6110808241938" fill="none" stroke="purple"/><path class="subway" d="M478.13586488889996,409.6110808241938L480.58254222222604,446.3017580426822L455.47497244447004,495.9554896382324L448.4262115556048,507.81572683309787L439.22204444452655,517.5394555709499L402.2888675555587,548.0354801954818" fill="none" stroke="purple"/><path class="subway" d="M402.2888675555587,548.6247585626261L439.33855288883206,517.9814391212713L448.71748266671784,508.1103878271824L456.40704000007827,495.29248739915784L481.281592888874,446.3017580426822L478.718407111126,409.6110808241938" fill="none" stroke="purple"/><path class="subway" d="M402.2888675555587,548.6247585626261L439.33855288883206,517.9814391212713L448.71748266671784,508.1103878271824L456.40704000007827,495.29248739915784L481.281592888874,446.3017580426822L478.718407111126,409.6110808241938" fill="none" stroke="purple"/><path class="light_rail" d="M600.0619520000182,665.5839106009807L604.6057813332882,658.5140442601114L626.392860444379,597.6062968538608L658.2579200000037,483.35830924482434M658.2579200000037,418.0840468482638L657.6171235555084,409.6110808241938" fill="none" stroke="purple"/></g><g><path class="light_rail" d="M658.2579200000037,420.8101035684522L661.5201564443996,468.7717367731966L658.2579200000037,482.5479543445399" fill="none" stroke="purple"/><path class="light_rail" d="M658.2579200000037,483.35830924482434L661.8114275555126,469.213759854174L658.2579200000037,418.0840468482638" fill="none" stroke="purple"/></g><g/></svg>